<mxfile host="app.diagrams.net" modified="2024-03-05T08:07:02.595Z" agent="Mozilla/5.0 (Windows NT 10.0; Win64; x64) AppleWebKit/537.36 (KHTML, like Gecko) Chrome/122.0.0.0 Safari/537.36" version="23.1.1" etag="ZpeSzG2MTMsHKA-p25GN" type="github">
  <diagram name="Page-1" id="8Xf3axiQjGns9qzkTME2">
    <mxGraphModel>
      <root>
        <mxCell id="0" />
        <mxCell id="1" parent="0" />
      </root>
    </mxGraphModel>
  </diagram>
</mxfile>
